# xmcd CD database file
#
# Track frame offsets:
#	150
#	14445
#	40250
#	63601
#	85854
#	104865
#	121107
#	137050
#	179038
#	202208
#	229972
#	247923
#	282478
#
# Disc length: 4022 seconds
#
# Revision: 0
# Processed by: cddbd v1.5.2PL0 Copyright (c) Steve Scherf et al.
# Submitted via: CDex 1.50Beta7
#
DISCID=c80fb40d
DTITLE=Clifford Brown - The Emarcy Master Takes [CD4]
DYEAR=2010
DGENRE=Jazz
TTITLE0=What Am I Here For
TTITLE1=Cherokee
TTITLE2=Jacqui
TTITLE3=Sandu
TTITLE4=Gertrude's Bounce
TTITLE5=Step Lightly (Junior's Arrival)
TTITLE6=Powell's Prances
TTITLE7=I'll Remember April
TTITLE8=Time
TTITLE9=The Scene Is Clean
TTITLE10=Flossie Lou
TTITLE11=What Is This Thing Called Love
TTITLE12=Love Is A Many Splendored Thing
EXTD=YEAR: 2010
EXTT0=
EXTT1=
EXTT2=
EXTT3=
EXTT4=
EXTT5=
EXTT6=
EXTT7=
EXTT8=
EXTT9=
EXTT10=
EXTT11=
EXTT12=
PLAYORDER=
